<?xml version="1.0" standalone="no"?>
<!DOCTYPE svg PUBLIC "-//W3C//DTD SVG 20010904//EN"
 "http://www.w3.org/TR/2001/REC-SVG-20010904/DTD/svg10.dtd">
<svg version="1.0" xmlns="http://www.w3.org/2000/svg"
 width="512.000000pt" height="512.000000pt" viewBox="0 0 512.000000 512.000000"
 preserveAspectRatio="xMidYMid meet">
<metadata>
Created by potrace 1.11, written by Peter Selinger 2001-2013
</metadata>
<g transform="translate(0.000000,512.000000) scale(0.100000,-0.100000)"
fill="#000000" stroke="none">
<path d="M90 4310 c0 -347 3 -530 10 -530 6 0 10 -118 10 -335 0 -217 -4 -335
-10 -335 -7 0 -10 -495 -10 -1465 l0 -1465 600 0 600 0 0 1010 0 1010 435 0
435 0 0 340 0 340 -430 0 -430 0 0 600 0 600 430 0 430 0 0 380 0 380 -1035 0
-1035 0 0 -530z"/>
<path d="M2810 4460 l0 -380 453 0 452 0 0 -600 0 -600 -452 0 -453 0 0 -340
0 -340 460 0 460 0 0 -1010 0 -1010 635 0 635 0 0 2100 0 2099 -35 36 c-20 19
-39 35 -42 35 -6 0 -93 88 -295 299 l-86 91 -866 0 -866 0 0 -380z"/>
</g>
</svg>
