<?xml version="1.0" standalone="no"?>
<!DOCTYPE svg PUBLIC "-//W3C//DTD SVG 20010904//EN"
 "http://www.w3.org/TR/2001/REC-SVG-20010904/DTD/svg10.dtd">
<svg version="1.0" xmlns="http://www.w3.org/2000/svg"
 width="512.000000pt" height="512.000000pt" viewBox="0 0 512.000000 512.000000"
 preserveAspectRatio="xMidYMid meet">
<metadata>
Created by potrace 1.11, written by Peter Selinger 2001-2013
</metadata>
<g transform="translate(0.000000,512.000000) scale(0.100000,-0.100000)"
fill="#000000" stroke="none">
<path d="M1135 3828 c-15 -40 -33 -86 -41 -103 -7 -16 -49 -127 -93 -245 -45
-118 -86 -224 -90 -235 -5 -11 -42 -105 -81 -210 -40 -104 -82 -217 -95 -250
-39 -102 -148 -385 -283 -740 -190 -495 -309 -808 -317 -827 -7 -17 6 -18 186
-18 l194 0 84 238 c46 130 94 269 108 307 13 39 31 89 39 113 l16 42 610 -2
610 -3 44 -125 c50 -142 108 -307 162 -460 l37 -105 191 -3 192 -2 -90 232
c-49 128 -94 247 -99 263 -5 17 -13 39 -19 50 -5 11 -86 223 -180 470 -94 248
-177 466 -185 485 -7 19 -25 67 -40 105 -14 39 -30 79 -35 90 -5 11 -45 115
-89 230 -43 116 -127 337 -186 493 l-108 282 -208 0 -207 0 -27 -72z m269
-385 c24 -68 73 -199 96 -258 38 -96 50 -129 50 -135 0 -4 8 -25 17 -46 9 -22
18 -43 19 -49 1 -5 64 -175 140 -378 75 -202 135 -370 132 -372 -3 -3 -225 -4
-495 -3 l-490 3 113 305 c149 401 228 614 270 730 19 52 41 111 49 130 8 19
24 63 36 97 12 35 25 61 29 58 4 -2 19 -39 34 -82z"/>
<path d="M3009 3898 c-1 -2 -2 -610 -3 -1351 l-1 -1348 565 2 c488 1 579 4
670 19 355 60 583 240 654 518 24 92 27 112 26 207 0 150 -19 242 -71 349 -83
167 -218 279 -413 341 -73 24 -74 28 -11 40 76 13 182 74 240 137 103 111 145
243 140 438 -3 116 -5 134 -26 199 -69 213 -270 374 -527 421 -31 5 -68 13
-82 17 -25 6 -1159 18 -1161 11z m1091 -312 c152 -30 256 -102 308 -213 23
-50 27 -72 29 -163 5 -235 -92 -351 -342 -406 -16 -4 -186 -9 -377 -11 l-348
-5 0 407 0 407 348 -5 c191 -2 363 -7 382 -11z m88 -1120 c234 -61 343 -204
345 -455 1 -149 -16 -223 -73 -311 -52 -78 -114 -124 -220 -159 -106 -35 -168
-39 -527 -40 l-343 -1 0 496 0 496 378 -5 c308 -3 389 -7 440 -21z"/>
</g>
</svg>
