<?xml version="1.0" standalone="no"?>
<!DOCTYPE svg PUBLIC "-//W3C//DTD SVG 20010904//EN"
 "http://www.w3.org/TR/2001/REC-SVG-20010904/DTD/svg10.dtd">
<svg version="1.0" xmlns="http://www.w3.org/2000/svg"
 width="260.000000pt" height="260.000000pt" viewBox="0 0 260.000000 260.000000"
 preserveAspectRatio="xMidYMid meet">
<metadata>
Created by potrace 1.11, written by Peter Selinger 2001-2013
</metadata>
<g transform="translate(0.000000,260.000000) scale(0.100000,-0.100000)"
fill="#000000" stroke="none">
<path d="M50 1585 l0 -815 219 0 219 0 6 288 c4 158 9 311 12 340 l5 52 78 0
c43 0 99 3 125 6 l46 7 0 -567 0 -566 855 0 855 0 0 445 0 445 -105 0 -105 0
0 305 0 305 -214 0 -213 0 -7 188 c-9 240 -19 294 -64 344 l-34 38 -839 0
-839 0 0 -815z m1310 410 l0 -165 -300 0 -300 0 0 -65 0 -65 -129 0 c-71 0
-136 3 -145 6 -14 5 -16 35 -16 230 l0 224 445 0 445 0 0 -165z m650 -540 l0
-155 -360 0 -360 0 0 155 0 155 360 0 360 0 0 -155z m60 -685 l0 -220 -430 0
-430 0 0 220 0 220 430 0 430 0 0 -220z"/>
</g>
</svg>
