<?xml version="1.0" standalone="no"?>
<!DOCTYPE svg PUBLIC "-//W3C//DTD SVG 20010904//EN"
 "http://www.w3.org/TR/2001/REC-SVG-20010904/DTD/svg10.dtd">
<svg version="1.0" xmlns="http://www.w3.org/2000/svg"
 width="512.000000pt" height="512.000000pt" viewBox="0 0 512.000000 512.000000"
 preserveAspectRatio="xMidYMid meet">
<metadata>
Created by potrace 1.11, written by Peter Selinger 2001-2013
</metadata>
<g transform="translate(0.000000,512.000000) scale(0.100000,-0.100000)"
fill="#000000" stroke="none">
<path d="M1925 4330 c-14 -22 -37 -59 -52 -82 -15 -24 -33 -52 -39 -63 -11
-19 -78 -133 -99 -166 -11 -18 -94 -154 -110 -181 -5 -9 -31 -51 -57 -94 -27
-42 -48 -79 -48 -81 0 -2 -11 -19 -25 -37 -14 -18 -25 -36 -25 -40 0 -4 -13
-27 -30 -51 -16 -24 -30 -46 -30 -50 0 -3 -11 -21 -25 -39 -14 -18 -25 -36
-25 -40 0 -4 -13 -27 -30 -51 -16 -24 -30 -46 -30 -50 0 -3 -11 -21 -25 -39
-14 -18 -25 -36 -25 -40 0 -4 -13 -27 -30 -51 -16 -24 -30 -47 -30 -51 0 -4
-11 -22 -25 -40 -14 -18 -25 -35 -25 -37 0 -2 -21 -39 -47 -81 -27 -43 -53
-85 -58 -94 -18 -29 -100 -164 -110 -181 -6 -9 -30 -49 -55 -90 -25 -40 -50
-81 -55 -90 -6 -9 -30 -50 -55 -91 -57 -96 -56 -95 -113 -186 -26 -42 -47 -79
-47 -81 0 -2 -11 -19 -25 -37 -14 -18 -25 -36 -25 -40 0 -4 -13 -27 -30 -51
-16 -24 -30 -46 -30 -50 0 -3 -11 -21 -25 -39 -14 -18 -25 -36 -25 -40 0 -4
-13 -27 -30 -51 -16 -24 -30 -46 -30 -50 0 -3 -11 -21 -25 -39 -14 -18 -25
-36 -25 -40 0 -4 -13 -27 -30 -51 -16 -24 -30 -47 -30 -51 0 -4 -6 -15 -14
-23 -8 -9 -23 -32 -34 -51 -20 -37 -85 -144 -114 -189 -9 -14 -17 -29 -17 -33
-1 -5 231 -8 514 -8 l514 0 480 962 480 963 -5 -95 c-3 -52 -16 -432 -29 -845
-14 -412 -27 -803 -31 -868 l-6 -118 1094 4 c986 3 1100 5 1162 20 38 9 72 21
75 25 3 5 24 15 46 22 45 14 137 59 145 70 3 4 25 20 49 35 50 31 221 202 221
220 0 7 7 18 15 25 44 37 126 275 146 430 18 134 6 346 -25 453 -28 94 -64
173 -102 224 -13 17 -24 35 -24 38 0 13 -89 121 -123 150 -31 25 -34 31 -23
45 30 33 120 229 143 309 30 103 42 315 24 428 -13 82 -61 230 -88 270 -10 15
-24 39 -31 53 -18 36 -151 185 -192 215 l-34 25 -1268 0 -1268 0 -25 -40z
m1945 -670 c0 -5 15 -10 34 -10 113 0 157 -150 68 -231 l-37 -34 -537 -3 -538
-3 0 146 0 145 505 0 c330 0 505 -3 505 -10z m139 -1130 c29 -5 59 -17 67 -25
9 -8 20 -15 25 -15 23 0 49 -66 49 -124 0 -75 -29 -130 -85 -160 -39 -21 -49
-21 -622 -24 l-583 -3 0 181 0 180 549 0 c318 0 570 -4 600 -10z"/>
<path d="M80 900 l0 -110 2415 0 2415 0 0 110 0 110 -2415 0 -2415 0 0 -110z"/>
</g>
</svg>
